<svg width="108" height="23" viewBox="0 0 108 23" fill="none" xmlns="http://www.w3.org/2000/svg">
<path d="M18.2273 1.81049C18.2273 1.15514 18.766 0.630859 19.4567 0.630859C20.1197 0.630859 20.6584 1.15514 20.6584 1.81049V5.27074H22.9514C23.642 5.27074 24.1807 5.74259 24.1807 6.38484C24.1807 7.0664 23.6558 7.52515 22.9514 7.52515H20.6584V13.4626C20.6584 14.3277 21.128 14.8782 21.7496 14.8782C22.4403 14.8782 22.5508 14.6947 23.0066 14.6947C23.6006 14.6947 24.1807 15.101 24.1807 15.7826C24.1807 16.3462 23.7249 16.7787 23.1448 16.8967C22.6751 16.9884 22.2193 17.0277 21.7496 17.0277C19.8158 17.0277 18.2273 15.5728 18.2273 13.4757V1.81049Z" fill="#0B0723"/>
<path d="M27.1508 8.42992C27.1508 6.50319 28.6564 5.03521 30.6731 5.03521C31.2671 5.03521 31.8472 5.10074 32.4412 5.21871C33.0075 5.33667 33.4081 5.78231 33.4081 6.3328C33.4081 6.94883 32.9385 7.42068 32.2478 7.42068C32.1097 7.42068 32.0406 7.42068 31.8472 7.38136C31.4743 7.28961 31.0461 7.19786 30.6731 7.19786C30.0791 7.19786 29.5819 7.66972 29.5819 8.24642V15.8485C29.5819 16.5038 29.0432 17.0281 28.3801 17.0281C27.6895 17.0281 27.1508 16.5038 27.1508 15.8485V8.42992Z" fill="#0B0723"/>
<path d="M39.3609 16.3465L35.4656 6.63426C35.4242 6.50319 35.3689 6.3328 35.3689 6.20173C35.3689 5.61191 35.9353 5.0352 36.6259 5.0352C37.1232 5.0352 37.5652 5.33666 37.731 5.7823L40.5627 13.2664L42.9938 5.82162C43.1595 5.34977 43.6292 5.02209 44.1265 5.02209C44.7619 5.02209 45.3835 5.52016 45.3835 6.20173C45.3835 6.31969 45.3558 6.45076 45.3144 6.56872L41.0738 18.7582C40.4384 20.6194 38.7808 21.8777 36.5431 21.8777C35.9076 21.8777 35.3413 21.4452 35.3413 20.7636C35.3413 20.1738 35.8662 19.6888 36.5016 19.6757C37.5376 19.6364 38.4354 19.217 38.767 18.2209L39.3609 16.3465Z" fill="#0B0723"/>
<path d="M55.0945 9.63577C55.0945 8.2071 54.1276 7.19786 52.5667 7.19786C50.9644 7.19786 50.0389 8.08914 50.0389 9.63577V12.4538C50.0389 13.9742 50.9644 14.8655 52.5667 14.8655C54.169 14.8655 55.0945 13.9742 55.0945 12.4538V9.63577ZM57.5256 12.2441C57.5256 13.6334 57.056 14.8392 56.1581 15.7043C55.2603 16.5694 54.0033 17.0281 52.5667 17.0281C51.1301 17.0281 49.8731 16.5694 48.9753 15.7043C48.0774 14.8392 47.6078 13.6334 47.6078 12.2441V9.81926C47.6078 8.42992 48.0774 7.22408 48.9753 6.35902C49.8731 5.49395 51.1301 5.03521 52.5667 5.03521C54.0033 5.03521 55.2603 5.49395 56.1581 6.35902C57.056 7.22408 57.5256 8.42992 57.5256 9.81926V12.2441Z" fill="#0B0723"/>
<path d="M69.4734 1.81049C69.4734 1.15514 70.0122 0.630859 70.7028 0.630859C71.3658 0.630859 71.9045 1.15514 71.9045 1.81049V15.8481C71.9045 16.5034 71.3658 17.0277 70.7028 17.0277C70.0122 17.0277 69.4734 16.5034 69.4734 15.8481V1.81049Z" fill="#0B0723"/>
<path d="M81.919 11.8633H79.4878C77.4297 11.8633 77.3192 12.9381 77.3192 13.3182C77.3192 13.7245 77.4435 14.8648 79.4878 14.8648C80.289 14.8648 81.1592 14.7469 81.919 14.5634V11.8633ZM84.3501 15.0483C84.3501 15.6906 83.9219 16.228 83.3141 16.4377C82.1538 16.8309 80.8139 17.0275 79.4878 17.0275C78.0513 17.0275 76.9186 16.6867 76.1174 16.0314C75.3163 15.376 74.8881 14.4454 74.8881 13.3182C74.8881 12.2041 75.3163 11.3391 76.1174 10.6968C76.9186 10.0415 78.0513 9.70069 79.4878 9.70069H81.919V8.90116C81.919 7.94435 81.1869 7.19725 79.9575 7.19725C78.8524 7.19725 78.2308 7.32832 77.4021 7.81328C77.2087 7.93124 76.96 8.02299 76.739 8.02299C76.1036 8.02299 75.5787 7.56424 75.5787 7.00064C75.5787 6.59433 75.7721 6.18801 76.1727 5.95208C77.4435 5.2443 78.5624 5.0477 80.2614 5.0477C82.8997 5.0477 84.3501 6.89579 84.3501 8.91426V15.0483Z" fill="#0B0723"/>
<path d="M94.3504 9.39945C94.3504 8.0101 93.4939 7.19747 92.0298 7.19747C91.1733 7.19747 90.3998 7.49893 89.7368 8.02321V14.6029C90.4965 14.7864 91.2424 14.8782 92.0298 14.8782C93.4939 14.8782 94.3504 14.0786 94.3504 12.6762V9.39945ZM96.7815 12.4534C96.7815 13.7903 96.3118 14.9306 95.4554 15.7563C94.599 16.5952 93.4249 17.0277 92.0298 17.0277C90.7589 17.0277 89.5296 16.818 88.3416 16.4379C87.7339 16.2282 87.3057 15.6908 87.3057 15.0486V1.81049C87.3057 1.15514 87.8444 0.630859 88.535 0.630859C89.1981 0.630859 89.7368 1.15514 89.7368 1.81049V5.63774C90.4689 5.32317 91.4082 5.04792 92.1955 5.04792C93.5906 5.04792 94.6266 5.42802 95.483 6.27998C96.3256 7.09261 96.7815 8.28535 96.7815 9.59605V12.4534Z" fill="#0B0723"/>
<path d="M101.796 11.5887C100.525 11.13 99.5304 10.1732 99.5304 8.46925C99.5304 6.46387 101.257 5.03521 103.619 5.03521C105.221 5.03521 106.05 5.25803 106.824 5.59881C107.293 5.78231 107.597 6.18863 107.597 6.67359C107.597 7.2634 107.1 7.76147 106.465 7.76147C106.299 7.76147 106.064 7.72215 105.898 7.64351C105.304 7.36826 104.337 7.18476 103.564 7.18476C102.597 7.18476 101.962 7.64351 101.962 8.41682C101.962 9.00663 102.431 9.37363 102.928 9.53092L105.249 10.2649C106.81 10.763 107.749 11.7853 107.749 13.4499C107.749 15.4553 106.078 17.015 103.55 17.015C102.155 17.015 101.022 16.766 100.152 16.3728C99.71 16.1631 99.4199 15.783 99.4199 15.3242C99.4199 14.7344 99.9448 14.1839 100.594 14.1839C100.76 14.1839 100.967 14.2494 101.133 14.315C101.768 14.6295 102.555 14.8393 103.591 14.8393C104.724 14.8393 105.318 14.4329 105.318 13.6596C105.318 12.8208 104.614 12.5455 103.73 12.2441L101.796 11.5887Z" fill="#0B0723"/>
<path d="M9.08235 7.15818C8.59889 7.15818 8.14305 7.34168 7.79773 7.66936L2.82501 12.4665C2.47968 12.7942 2.30011 13.2398 2.30011 13.6986C2.30011 14.1573 2.49349 14.603 2.82501 14.9306C3.17033 15.2583 3.62617 15.4418 4.10963 15.4418C4.59308 15.4418 5.04892 15.2583 5.39425 14.9306L10.3808 10.1204C11.0852 9.4388 11.0852 8.33781 10.3808 7.65625C10.0216 7.34168 9.56581 7.15818 9.08235 7.15818ZM4.09581 17.0802C3.15652 17.0802 2.27248 16.7263 1.60945 16.0841C0.946421 15.4418 0.58728 14.603 0.58728 13.6986C0.58728 12.7942 0.946421 11.9422 1.60945 11.3131L6.59599 6.50283C7.25902 5.86059 8.14306 5.51981 9.08235 5.51981C10.0216 5.51981 10.9057 5.8737 11.5687 6.50283C12.9362 7.82664 12.9362 9.96308 11.5687 11.2869L6.58217 16.0972C5.91914 16.7263 5.0351 17.0802 4.09581 17.0802ZM4.09581 2.34791C3.61235 2.34791 3.15652 2.53141 2.81119 2.85908C2.46586 3.18676 2.28629 3.61929 2.28629 4.09114C2.28629 4.54989 2.47968 4.99553 2.81119 5.3232L7.79773 10.1204C8.14305 10.448 8.59889 10.6315 9.08235 10.6315C9.56581 10.6315 10.0216 10.448 10.367 10.1204C11.0714 9.4388 11.0714 8.33781 10.367 7.65625L5.38043 2.85908C5.0351 2.53141 4.57927 2.34791 4.09581 2.34791ZM9.08235 12.283C8.14306 12.283 7.25902 11.9291 6.59599 11.2869L1.62326 6.48973C0.960234 5.84748 0.601093 5.00863 0.601093 4.10425C0.601093 3.19987 0.960234 2.34791 1.62326 1.71877C2.28629 1.07653 3.17033 0.735748 4.10963 0.735748C5.04892 0.735748 5.93296 1.08964 6.59599 1.71877L11.5825 6.52905C12.95 7.85285 12.95 9.9893 11.5825 11.3131C10.9057 11.9291 10.0216 12.283 9.08235 12.283Z" fill="#28D3AA"/>
<path d="M65.6884 11.2476C65.6884 12.3879 64.7353 13.3054 63.5474 13.3054C62.3595 13.3054 61.4064 12.3879 61.4064 11.2476C61.4064 10.1073 62.3595 9.18981 63.5474 9.18981C64.7353 9.18981 65.6884 10.1073 65.6884 11.2476Z" fill="#28D3AA"/>
</svg>
